<?xml version="1.0" encoding="UTF-8" standalone="no"?>
<!-- Created with Inkscape (http://www.inkscape.org/) -->

<svg
   xmlns:dc="http://purl.org/dc/elements/1.1/"
   xmlns:cc="http://creativecommons.org/ns#"
   xmlns:rdf="http://www.w3.org/1999/02/22-rdf-syntax-ns#"
   xmlns:svg="http://www.w3.org/2000/svg"
   xmlns="http://www.w3.org/2000/svg"
   xmlns:sodipodi="http://sodipodi.sourceforge.net/DTD/sodipodi-0.dtd"
   xmlns:inkscape="http://www.inkscape.org/namespaces/inkscape"
   version="1.1"
   id="svg2"
   xml:space="preserve"
   width="666.66669"
   height="666.66669"
   viewBox="0 0 666.66669 666.66669"
   sodipodi:docname="coding-man.svg"
   inkscape:version="0.92.4 (5da689c313, 2019-01-14)"><metadata
     id="metadata8"><rdf:RDF><cc:Work
         rdf:about=""><dc:format>image/svg+xml</dc:format><dc:type
           rdf:resource="http://purl.org/dc/dcmitype/StillImage" /><dc:title></dc:title></cc:Work></rdf:RDF></metadata><defs
     id="defs6"><clipPath
       clipPathUnits="userSpaceOnUse"
       id="clipPath20"><path
         d="M 0,500 H 500 V 0 H 0 Z"
         id="path18"
         inkscape:connector-curvature="0" /></clipPath><clipPath
       clipPathUnits="userSpaceOnUse"
       id="clipPath80"><path
         d="M 71.2114,400.577 H 428.789 V 151.229 H 71.2114 Z"
         id="path78"
         inkscape:connector-curvature="0" /></clipPath><clipPath
       clipPathUnits="userSpaceOnUse"
       id="clipPath360"><path
         d="M 189.535,197.568 H 304.768 V 114.023 H 189.535 Z"
         id="path358"
         inkscape:connector-curvature="0" /></clipPath><clipPath
       clipPathUnits="userSpaceOnUse"
       id="clipPath404"><path
         d="m 197.257,355.929 h 96.82 v -64.465 h -96.82 z"
         id="path402"
         inkscape:connector-curvature="0" /></clipPath><clipPath
       clipPathUnits="userSpaceOnUse"
       id="clipPath464"><path
         d="m 212.748,275.104 h 73.04 v -19.01 h -73.04 z"
         id="path462"
         inkscape:connector-curvature="0" /></clipPath><clipPath
       clipPathUnits="userSpaceOnUse"
       id="clipPath484"><path
         d="M 0,500 H 500 V 0 H 0 Z"
         id="path482"
         inkscape:connector-curvature="0" /></clipPath></defs><sodipodi:namedview
     pagecolor="#ffffff"
     bordercolor="#666666"
     borderopacity="1"
     objecttolerance="10"
     gridtolerance="10"
     guidetolerance="10"
     inkscape:pageopacity="0"
     inkscape:pageshadow="2"
     inkscape:window-width="1914"
     inkscape:window-height="1004"
     id="namedview4"
     showgrid="false"
     inkscape:zoom="0.70799998"
     inkscape:cx="329.74067"
     inkscape:cy="245.97801"
     inkscape:window-x="0"
     inkscape:window-y="0"
     inkscape:window-maximized="0"
     inkscape:current-layer="g164" /><g
     id="g10"
     inkscape:groupmode="layer"
     inkscape:label="339827-PAJTMV-88"
     transform="matrix(1.3333333,0,0,-1.3333333,0,666.66667)"><path
       d="M 0.519,0 H 500 V 500 H 0.519 Z"
       style="fill:#ffffff;fill-opacity:1;fill-rule:nonzero;stroke:none"
       id="path12"
       inkscape:connector-curvature="0" /><g
       id="g14"><g
         id="g16"
         clip-path="url(#clipPath20)"><g
           id="g22"
           transform="translate(428.9648,253.7266)"
           style="fill:#1868c9;fill-opacity:1"><path
             d="m 0,0 c 0,-100.238 -81.259,-181.497 -181.496,-181.497 -100.238,0 -181.497,81.259 -181.497,181.497 0,100.238 81.259,181.496 181.497,181.496 C -81.259,181.496 0,100.238 0,0"
             style="fill:#1868c9;fill-opacity:1;fill-rule:nonzero;stroke:none"
             id="path24"
             inkscape:connector-curvature="0" /></g><g
           id="g26"
           transform="translate(366.5244,401.4443)"><path
             d="m 0,0 h -47.592 c -1.801,0 -3.261,1.46 -3.261,3.261 v 0.65 c 0,1.801 1.46,3.261 3.261,3.261 L 0,7.172 c 1.801,0 3.261,-1.46 3.261,-3.261 V 3.261 C 3.261,1.46 1.801,0 0,0"
             style="fill:#ffffff;fill-opacity:1;fill-rule:nonzero;stroke:none"
             id="path28"
             inkscape:connector-curvature="0" /></g><g
           id="g30"
           transform="translate(366.5244,387.0469)"><path
             d="m 0,0 h -47.592 c -1.801,0 -3.261,1.46 -3.261,3.261 v 0.65 c 0,1.8 1.46,3.26 3.261,3.26 L 0,7.171 c 1.801,0 3.261,-1.46 3.261,-3.26 V 3.261 C 3.261,1.46 1.801,0 0,0"
             style="fill:#ffffff;fill-opacity:1;fill-rule:nonzero;stroke:none"
             id="path32"
             inkscape:connector-curvature="0" /></g><g
           id="g34"
           transform="translate(400.3213,373.5586)"><path
             d="m 0,0 h -47.593 c -1.801,0 -3.261,1.46 -3.261,3.261 v 0.65 c 0,1.8 1.46,3.26 3.261,3.26 L 0,7.171 c 1.801,0 3.261,-1.46 3.261,-3.26 V 3.261 C 3.261,1.46 1.801,0 0,0"
             style="fill:#ffffff;fill-opacity:1;fill-rule:nonzero;stroke:none"
             id="path36"
             inkscape:connector-curvature="0" /></g><g
           id="g38"
           transform="translate(400.3213,359.1611)"><path
             d="m 0,0 h -47.593 c -1.801,0 -3.261,1.46 -3.261,3.261 v 0.65 c 0,1.8 1.46,3.26 3.261,3.26 L 0,7.171 c 1.801,0 3.261,-1.46 3.261,-3.26 V 3.261 C 3.261,1.46 1.801,0 0,0"
             style="fill:#ffffff;fill-opacity:1;fill-rule:nonzero;stroke:none"
             id="path40"
             inkscape:connector-curvature="0" /></g><g
           id="g42"
           transform="translate(119.7485,363.2163)"><path
             d="m 0,0 h -39.916 c -1.51,0 -2.734,1.225 -2.734,2.735 V 3.28 c 0,1.511 1.224,2.735 2.734,2.735 H 0 c 1.51,0 2.735,-1.224 2.735,-2.735 V 2.735 C 2.735,1.225 1.51,0 0,0"
             style="fill:#ffffff;fill-opacity:1;fill-rule:nonzero;stroke:none"
             id="path44"
             inkscape:connector-curvature="0" /></g><g
           id="g46"
           transform="translate(119.7485,351.1411)"><path
             d="m 0,0 h -39.916 c -1.51,0 -2.734,1.225 -2.734,2.735 V 3.28 c 0,1.511 1.224,2.735 2.734,2.735 H 0 c 1.51,0 2.735,-1.224 2.735,-2.735 V 2.735 C 2.735,1.225 1.51,0 0,0"
             style="fill:#ffffff;fill-opacity:1;fill-rule:nonzero;stroke:none"
             id="path48"
             inkscape:connector-curvature="0" /></g><g
           id="g50"
           transform="translate(148.0933,339.8286)"><path
             d="m 0,0 h -39.915 c -1.511,0 -2.735,1.225 -2.735,2.735 V 3.28 c 0,1.511 1.224,2.735 2.735,2.735 H 0 c 1.51,0 2.735,-1.224 2.735,-2.735 V 2.735 C 2.735,1.225 1.51,0 0,0"
             style="fill:#ffffff;fill-opacity:1;fill-rule:nonzero;stroke:none"
             id="path52"
             inkscape:connector-curvature="0" /></g><g
           id="g54"
           transform="translate(148.0933,327.7534)"><path
             d="m 0,0 h -39.915 c -1.511,0 -2.735,1.225 -2.735,2.735 V 3.28 c 0,1.511 1.224,2.735 2.735,2.735 H 0 c 1.51,0 2.735,-1.224 2.735,-2.735 V 2.735 C 2.735,1.225 1.51,0 0,0"
             style="fill:#ffffff;fill-opacity:1;fill-rule:nonzero;stroke:none"
             id="path56"
             inkscape:connector-curvature="0" /></g><g
           id="g58"
           transform="translate(391.8223,194.5928)"><path
             d="m 0,0 h -39.915 c -1.511,0 -2.735,1.225 -2.735,2.734 V 3.28 c 0,1.51 1.224,2.735 2.735,2.735 L 0,6.015 C 1.51,6.015 2.734,4.79 2.734,3.28 V 2.734 C 2.734,1.225 1.51,0 0,0"
             style="fill:#ffffff;fill-opacity:1;fill-rule:nonzero;stroke:none"
             id="path60"
             inkscape:connector-curvature="0" /></g><g
           id="g62"
           transform="translate(391.8223,182.5176)"><path
             d="m 0,0 h -39.915 c -1.511,0 -2.735,1.225 -2.735,2.734 V 3.28 c 0,1.51 1.224,2.735 2.735,2.735 L 0,6.015 C 1.51,6.015 2.734,4.79 2.734,3.28 V 2.734 C 2.734,1.225 1.51,0 0,0"
             style="fill:#ffffff;fill-opacity:1;fill-rule:nonzero;stroke:none"
             id="path64"
             inkscape:connector-curvature="0" /></g><g
           id="g66"
           transform="translate(420.167,171.2051)"><path
             d="m 0,0 h -39.915 c -1.511,0 -2.735,1.225 -2.735,2.734 V 3.28 c 0,1.51 1.224,2.735 2.735,2.735 L 0,6.015 C 1.51,6.015 2.734,4.79 2.734,3.28 V 2.734 C 2.734,1.225 1.51,0 0,0"
             style="fill:#ffffff;fill-opacity:1;fill-rule:nonzero;stroke:none"
             id="path68"
             inkscape:connector-curvature="0" /></g><g
           id="g70"
           transform="translate(420.167,159.1299)"><path
             d="m 0,0 h -39.915 c -1.511,0 -2.735,1.225 -2.735,2.734 V 3.28 c 0,1.51 1.224,2.735 2.735,2.735 L 0,6.015 C 1.51,6.015 2.734,4.79 2.734,3.28 V 2.734 C 2.734,1.225 1.51,0 0,0"
             style="fill:#ffffff;fill-opacity:1;fill-rule:nonzero;stroke:none"
             id="path72"
             inkscape:connector-curvature="0" /></g><g
           id="g74"><g
             id="g76" /><g
             id="g164"><g
               clip-path="url(#clipPath80)"
               id="g162"
               style="opacity:0.53999299;fill:#ffffdf;fill-opacity:1"><g
                 transform="translate(147.6743,395.6802)"
                 id="g84"
                 style="fill:#ffffdf;fill-opacity:1"><path
                   d="m 0,0 c -1.991,-0.958 -3.448,-3.046 -4.103,-5.877 -0.939,-4.056 -0.008,-8.762 2.316,-11.71 1.722,-2.186 4.131,-3.294 7.162,-3.294 H 5.47 c 2.556,0.02 5.023,0.855 6.333,1.674 1.232,0.77 3.118,2.9 4.339,5.48 0.999,2.114 1.894,5.245 0.479,8.158 C 14.183,-0.551 9.322,4.489 0,0 m 5.364,-23.998 c -3.355,0 -6.96,1.102 -9.614,4.471 -2.925,3.712 -4.066,9.347 -2.907,14.356 0.874,3.776 2.933,6.616 5.797,7.995 12.721,6.125 18.783,-2.872 20.8,-7.024 3.595,-7.4 -2.9,-15.743 -5.976,-17.665 -1.662,-1.039 -4.757,-2.133 -8.1,-2.133"
                   style="fill:#ffffdf;fill-opacity:1;fill-rule:nonzero;stroke:none"
                   id="path82"
                   inkscape:connector-curvature="0" /></g><g
                 transform="translate(157.7891,375.1436)"
                 id="g88"
                 style="fill:#ffffdf;fill-opacity:1"><path
                   d="M 0,0 C 0,0 1.38,-5.171 2.878,-5.757 4.54,-6.406 9.924,-2.365 9.205,-0.925 8.485,0.514 5.037,3.958 5.037,3.958 Z"
                   style="fill:#ffffdf;fill-opacity:1;fill-rule:nonzero;stroke:none"
                   id="path86"
                   inkscape:connector-curvature="0" /></g><g
                 transform="translate(160.4077,375.0464)"
                 id="g92"
                 style="fill:#ffffdf;fill-opacity:1"><path
                   d="m 0,0 c -0.518,0 -1.025,0.257 -1.324,0.726 l -6.288,9.881 c -0.465,0.73 -0.249,1.699 0.481,2.164 0.731,0.465 1.699,0.249 2.164,-0.481 L 1.321,2.409 C 1.786,1.679 1.57,0.71 0.84,0.245 0.58,0.079 0.288,0 0,0"
                   style="fill:#ffffdf;fill-opacity:1;fill-rule:nonzero;stroke:none"
                   id="path90"
                   inkscape:connector-curvature="0" /></g><g
                 transform="translate(156.834,389.7095)"
                 id="g96"
                 style="fill:#ffffdf;fill-opacity:1"><path
                   d="m 0,0 c 1.693,-1.693 1.693,-4.437 0,-6.13 -1.693,-1.693 -4.437,-1.693 -6.13,0 -1.693,1.693 -1.693,4.437 0,6.13 1.693,1.693 4.437,1.693 6.13,0"
                   style="fill:#ffffdf;fill-opacity:1;fill-rule:nonzero;stroke:none"
                   id="path94"
                   inkscape:connector-curvature="0" /></g><g
                 transform="translate(296.6348,360.939)"
                 id="g100"
                 style="fill:#ffffdf;fill-opacity:1"><path
                   d="m 0,0 c -0.78,-0.41 -1.229,-1.261 -1.452,-1.825 -0.657,-1.66 -0.459,-3.565 0.156,-4.159 0.246,-0.237 0.699,-0.215 1.348,0.069 0.798,0.349 0.676,3.336 0.017,5.538 C 0.031,-0.252 0.009,-0.126 0,0 m -0.973,-16.684 c -0.886,-10e-4 -1.776,0.116 -2.663,0.35 -4.098,1.082 -7.485,4.65 -8.628,9.092 -1.019,3.96 -0.146,8.407 2.336,11.896 2.447,3.438 6.172,5.528 10.492,5.884 C 5.298,10.923 8.766,7.463 9.741,3.839 10.748,0.102 9.21,-3.354 5.824,-4.963 5.183,-5.268 4.566,-5.4 3.989,-5.364 3.748,-6.952 3.048,-8.415 1.451,-9.114 c -1.98,-0.866 -3.864,-0.641 -5.171,0.618 -1.96,1.891 -1.976,5.433 -0.978,7.954 1.042,2.638 3.131,4.234 5.588,4.269 0.008,0.001 0.016,0.001 0.025,0.001 0.952,0 1.731,-0.766 1.745,-1.721 C 2.661,1.877 2.649,1.751 2.625,1.628 2.93,1.45 3.183,1.178 3.336,0.833 3.547,0.359 3.728,-0.103 3.896,-0.536 4.053,-0.937 4.252,-1.448 4.416,-1.767 7.048,-0.452 6.579,2.156 6.37,2.932 5.771,5.159 3.685,7.301 0.852,7.059 -3.35,6.712 -5.782,4.46 -7.083,2.631 -8.948,0.009 -9.638,-3.44 -8.884,-6.372 c 0.833,-3.237 3.243,-5.823 6.139,-6.587 2.793,-0.737 5.621,0.279 8.187,2.935 0.67,0.693 1.776,0.711 2.469,0.042 0.693,-0.67 0.711,-1.775 0.042,-2.468 -2.688,-2.782 -5.784,-4.234 -8.926,-4.234"
                   style="fill:#ffffdf;fill-opacity:1;fill-rule:nonzero;stroke:none"
                   id="path98"
                   inkscape:connector-curvature="0" /></g><g
                 transform="translate(376.042,290.4834)"
                 id="g104"
                 style="fill:#ffffdf;fill-opacity:1"><path
                   d="m 0,0 c -0.224,0.051 -0.449,0.113 -0.678,0.187 -3.793,1.223 -7.023,5.612 -5.858,11.632 0.918,4.741 3.45,8.516 6.773,10.099 2.277,1.084 4.75,1.03 6.968,-0.155 C 8.038,21.318 8.353,20.282 7.907,19.45 7.461,18.616 6.425,18.303 5.593,18.747 4.322,19.426 3.016,19.453 1.708,18.831 -0.605,17.729 -2.477,14.794 -3.179,11.17 -3.966,7.102 -1.988,4.202 0.372,3.441 2.384,2.795 4.216,3.761 5.266,6.035 5.663,6.892 6.68,7.265 7.536,6.87 8.393,6.474 8.767,5.458 8.371,4.601 6.982,1.596 3.895,-0.889 0,0"
                   style="fill:#ffffdf;fill-opacity:1;fill-rule:nonzero;stroke:none"
                   id="path102"
                   inkscape:connector-curvature="0" /></g><g
                 transform="translate(393.0752,313.3721)"
                 id="g108"
                 style="fill:#ffffdf;fill-opacity:1"><path
                   d="M 0,0 C -0.312,-0.082 -0.626,-0.169 -0.939,-0.26 -1.065,-0.295 -1.19,-0.33 -1.316,-0.364 -1.461,0.077 -1.605,0.519 -1.749,0.961 -2.192,2.26 -4.218,1.633 -3.789,0.32 c 0.143,-0.419 0.264,-0.841 0.385,-1.262 -0.572,-0.159 -1.144,-0.317 -1.715,-0.475 -1.512,-0.418 -1.125,-2.999 0.487,-2.766 0.623,0.09 1.247,0.18 1.87,0.269 0.119,-0.393 0.251,-0.787 0.409,-1.183 0.285,-0.713 1.232,-0.852 1.715,-0.441 0.135,0.063 0.254,0.153 0.318,0.291 0.264,0.576 0.207,1.135 0.053,1.692 0.302,0.042 0.597,0.084 0.871,0.126 C 3.112,-3.067 2.471,0.647 0,0"
                   style="fill:#ffffdf;fill-opacity:1;fill-rule:nonzero;stroke:none"
                   id="path106"
                   inkscape:connector-curvature="0" /></g><g
                 transform="translate(403.3779,315.3315)"
                 id="g112"
                 style="fill:#ffffdf;fill-opacity:1"><path
                   d="M 0,0 C -0.312,-0.082 -0.626,-0.169 -0.939,-0.26 -1.065,-0.295 -1.19,-0.33 -1.316,-0.365 L -1.75,0.961 C -2.192,2.26 -4.218,1.633 -3.789,0.32 c 0.143,-0.419 0.264,-0.841 0.385,-1.262 -0.572,-0.159 -1.144,-0.317 -1.715,-0.475 -1.512,-0.418 -1.126,-2.999 0.487,-2.766 l 1.869,0.269 c 0.12,-0.393 0.252,-0.787 0.41,-1.184 0.285,-0.712 1.232,-0.852 1.715,-0.44 0.135,0.063 0.254,0.153 0.318,0.29 0.264,0.577 0.207,1.136 0.053,1.693 0.302,0.042 0.596,0.084 0.871,0.126 C 3.112,-3.067 2.471,0.646 0,0"
                   style="fill:#ffffdf;fill-opacity:1;fill-rule:nonzero;stroke:none"
                   id="path110"
                   inkscape:connector-curvature="0" /></g><g
                 transform="translate(336.1064,152.5645)"
                 id="g116"
                 style="fill:#ffffdf;fill-opacity:1"><path
                   d="m 0,0 c -0.237,0 -0.478,0.056 -0.701,0.171 -0.75,0.389 -1.044,1.31 -0.656,2.06 l 10.013,19.36 c 0.388,0.751 1.311,1.043 2.061,0.656 0.75,-0.389 1.043,-1.31 0.655,-2.06 L 1.358,0.827 C 1.087,0.301 0.553,0 0,0"
                   style="fill:#ffffdf;fill-opacity:1;fill-rule:nonzero;stroke:none"
                   id="path114"
                   inkscape:connector-curvature="0" /></g><g
                 transform="translate(330.7676,156.5703)"
                 id="g120"
                 style="fill:#ffffdf;fill-opacity:1"><path
                   d="M 0,0 C -0.551,0 -1.083,0.298 -1.355,0.82 L -7.03,11.668 c -0.377,0.72 -0.125,1.608 0.574,2.023 L 4.226,20.033 C 4.95,20.465 5.89,20.227 6.32,19.5 6.751,18.773 6.513,17.836 5.786,17.405 L -3.649,11.802 1.353,2.238 C 1.744,1.489 1.455,0.565 0.707,0.175 0.481,0.056 0.238,0 0,0"
                   style="fill:#ffffdf;fill-opacity:1;fill-rule:nonzero;stroke:none"
                   id="path118"
                   inkscape:connector-curvature="0" /></g><g
                 transform="translate(344.6191,151.2285)"
                 id="g124"
                 style="fill:#ffffdf;fill-opacity:1"><path
                   d="m 0,0 c -0.598,0 -1.165,0.354 -1.41,0.939 -0.326,0.779 0.04,1.674 0.819,2 L 10.425,7.555 6.403,18.876 c -0.283,0.795 0.133,1.67 0.929,1.952 0.795,0.284 1.67,-0.134 1.952,-0.929 L 13.79,7.216 C 14.062,6.451 13.688,5.607 12.94,5.294 L 0.59,0.12 C 0.397,0.039 0.197,0 0,0"
                   style="fill:#ffffdf;fill-opacity:1;fill-rule:nonzero;stroke:none"
                   id="path122"
                   inkscape:connector-curvature="0" /></g><g
                 transform="translate(94.2178,194.7021)"
                 id="g128"
                 style="fill:#ffffdf;fill-opacity:1"><path
                   d="m 0,0 c -3.097,-1.41 -5.166,0.84 -5.826,2.347 -0.659,1.506 -1.312,3.95 1.882,6.012 2.612,1.695 5.541,0.285 6.2,-1.125 C 2.916,5.825 3.104,1.409 0,0 m 11.735,11.73 c -0.979,1.754 -2.184,3.38 -3.576,4.828 -1.085,-0.97 -2.169,-1.939 -3.254,-2.909 -1.587,0.996 -3.682,1.67 -5.945,1.613 -0.06,1.433 -0.249,2.862 -0.577,4.259 -2.506,0.035 -5.014,-0.876 -6.914,-2.512 0.445,-1.066 1.054,-2.062 1.802,-2.942 0.116,-0.136 0.236,-0.273 0.355,-0.411 -0.082,-0.051 -0.165,-0.097 -0.247,-0.15 -3.036,-1.966 -4.542,-4.08 -5.16,-6.127 -0.921,0.162 -1.842,0.33 -2.766,0.474 -0.216,0.033 -0.444,0.065 -0.648,-0.015 -0.203,-0.079 -0.351,-0.258 -0.451,-0.451 -0.345,-0.665 -0.192,-1.468 -0.032,-2.2 0.227,-1.029 0.453,-2.058 0.679,-3.087 0.121,-0.546 0.323,-1.187 0.861,-1.343 0.394,-0.115 0.804,0.089 1.168,0.28 0.444,0.233 0.9,0.442 1.355,0.653 0.211,-0.683 0.462,-1.321 0.714,-1.897 0.675,-1.541 2.001,-3.428 3.897,-4.748 -0.776,-0.646 -1.553,-1.29 -2.329,-1.936 l 1.662,-0.864 c 1.836,-0.953 3.769,-1.931 5.838,-1.897 0.363,1.015 0.637,2.063 0.821,3.127 1.06,0.112 2.191,0.412 3.391,0.958 1.658,0.753 2.899,1.885 3.816,3.215 0.709,-0.43 1.374,-0.934 1.965,-1.516 0.075,-0.073 0.167,-0.154 0.27,-0.135 0.088,0.018 0.144,0.101 0.19,0.178 0.445,0.738 0.89,1.476 1.334,2.216 0.735,1.22 1.141,2.225 1.49,3.607 -1.099,0.289 -2.12,0.662 -3.222,1.028 0.36,2.312 0.215,4.591 -0.166,6.267 1.278,0.524 2.495,1.198 3.61,2.013 0.053,0.039 0.108,0.081 0.132,0.141 0.035,0.094 -0.014,0.197 -0.063,0.283"
                   style="fill:#ffffdf;fill-opacity:1;fill-rule:nonzero;stroke:none"
                   id="path126"
                   inkscape:connector-curvature="0" /></g><g
                 transform="translate(118.3848,192.5576)"
                 id="g132"
                 style="fill:#ffffdf;fill-opacity:1"><path
                   d="M 0,0 C -1.593,-0.726 -2.657,0.432 -2.996,1.207 -3.335,1.981 -3.671,3.239 -2.028,4.3 -0.685,5.171 0.822,4.446 1.161,3.721 1.5,2.996 1.597,0.725 0,0 M 6.037,6.034 C 5.533,6.936 4.913,7.772 4.197,8.517 3.639,8.018 3.081,7.52 2.523,7.021 1.707,7.532 0.629,7.88 -0.535,7.851 -0.565,8.588 -0.663,9.322 -0.832,10.041 -2.121,10.059 -3.411,9.59 -4.388,8.748 -4.159,8.2 -3.845,7.688 -3.461,7.235 -3.401,7.165 -3.339,7.095 -3.278,7.024 -3.32,6.998 -3.363,6.975 -3.405,6.947 -4.967,5.936 -5.741,4.848 -6.06,3.795 -6.533,3.879 -7.007,3.965 -7.482,4.039 -7.593,4.056 -7.711,4.072 -7.815,4.031 -7.92,3.991 -7.997,3.898 -8.048,3.799 -8.225,3.457 -8.146,3.045 -8.064,2.668 c 0.117,-0.529 0.233,-1.059 0.35,-1.588 0.061,-0.281 0.166,-0.61 0.442,-0.69 0.203,-0.06 0.414,0.046 0.601,0.143 0.228,0.12 0.463,0.228 0.697,0.336 0.108,-0.351 0.238,-0.68 0.367,-0.975 0.347,-0.793 1.029,-1.764 2.005,-2.443 L -4.8,-3.545 c 0.285,-0.147 0.57,-0.296 0.855,-0.443 0.944,-0.491 1.938,-0.994 3.002,-0.977 0.187,0.523 0.328,1.062 0.422,1.609 0.546,0.057 1.127,0.211 1.745,0.493 0.853,0.386 1.491,0.969 1.963,1.653 0.365,-0.221 0.707,-0.48 1.011,-0.78 0.038,-0.037 0.085,-0.079 0.138,-0.069 0.045,0.008 0.075,0.052 0.098,0.091 0.229,0.38 0.458,0.76 0.687,1.14 C 5.499,-0.2 5.707,0.316 5.887,1.027 5.321,1.176 4.796,1.368 4.229,1.557 4.415,2.745 4.34,3.918 4.144,4.779 4.801,5.05 5.427,5.396 6.001,5.815 6.028,5.835 6.057,5.856 6.068,5.888 6.087,5.937 6.062,5.989 6.037,6.034"
                   style="fill:#ffffdf;fill-opacity:1;fill-rule:nonzero;stroke:none"
                   id="path130"
                   inkscape:connector-curvature="0" /></g><g
                 transform="translate(398.5469,238.0586)"
                 id="g136"
                 style="fill:#ffffdf;fill-opacity:1"><path
                   d="m 0,0 c -3.098,-1.409 -5.166,0.841 -5.825,2.347 -0.66,1.507 -1.313,3.951 1.881,6.013 2.612,1.694 5.541,0.285 6.2,-1.125 C 2.916,5.825 3.104,1.409 0,0 m 11.735,11.731 c -0.979,1.753 -2.184,3.38 -3.576,4.827 -1.085,-0.969 -2.17,-1.938 -3.255,-2.908 -1.587,0.995 -3.681,1.67 -5.944,1.613 -0.061,1.433 -0.249,2.862 -0.577,4.258 -2.506,0.036 -5.015,-0.876 -6.914,-2.512 0.444,-1.065 1.054,-2.061 1.802,-2.941 0.116,-0.137 0.236,-0.273 0.355,-0.411 -0.082,-0.051 -0.165,-0.097 -0.247,-0.15 -3.036,-1.966 -4.541,-4.081 -5.16,-6.128 -0.921,0.163 -1.842,0.33 -2.766,0.474 -0.217,0.034 -0.444,0.065 -0.648,-0.014 -0.203,-0.079 -0.352,-0.259 -0.451,-0.451 -0.345,-0.665 -0.193,-1.468 -0.032,-2.2 0.227,-1.029 0.453,-2.058 0.679,-3.087 0.12,-0.547 0.323,-1.187 0.86,-1.343 0.395,-0.115 0.804,0.089 1.168,0.279 0.445,0.234 0.901,0.443 1.356,0.654 0.211,-0.683 0.462,-1.322 0.714,-1.898 0.674,-1.541 2.001,-3.428 3.897,-4.747 -0.776,-0.646 -1.553,-1.291 -2.329,-1.936 0.554,-0.288 1.108,-0.576 1.662,-0.864 1.836,-0.953 3.769,-1.932 5.837,-1.898 0.363,1.016 0.638,2.064 0.821,3.127 1.061,0.113 2.192,0.413 3.392,0.959 1.658,0.753 2.899,1.885 3.816,3.215 0.709,-0.43 1.373,-0.934 1.965,-1.516 0.074,-0.074 0.167,-0.155 0.27,-0.135 0.088,0.017 0.144,0.101 0.19,0.178 0.444,0.738 0.89,1.476 1.334,2.215 0.735,1.22 1.141,2.226 1.49,3.607 -1.099,0.289 -2.121,0.663 -3.222,1.029 0.359,2.311 0.216,4.591 -0.166,6.266 1.278,0.524 2.495,1.198 3.61,2.013 0.053,0.039 0.108,0.081 0.132,0.142 0.035,0.094 -0.014,0.196 -0.063,0.283"
                   style="fill:#ffffdf;fill-opacity:1;fill-rule:nonzero;stroke:none"
                   id="path134"
                   inkscape:connector-curvature="0" /></g><g
                 transform="translate(422.7139,235.9141)"
                 id="g140"
                 style="fill:#ffffdf;fill-opacity:1"><path
                   d="M 0,0 C -1.593,-0.725 -2.657,0.433 -2.996,1.207 -3.336,1.982 -3.671,3.239 -2.028,4.301 -0.685,5.172 0.821,4.446 1.161,3.722 1.5,2.997 1.597,0.726 0,0 M 6.036,6.034 C 5.533,6.937 4.913,7.772 4.197,8.518 3.639,8.019 3.081,7.52 2.523,7.021 1.707,7.533 0.629,7.88 -0.535,7.851 c -0.03,0.737 -0.128,1.472 -0.296,2.19 -1.29,0.019 -2.58,-0.45 -3.557,-1.292 0.229,-0.548 0.542,-1.061 0.927,-1.513 0.06,-0.07 0.121,-0.14 0.183,-0.212 C -3.32,6.999 -3.363,6.975 -3.405,6.947 -4.967,5.937 -5.741,4.849 -6.06,3.796 -6.533,3.88 -7.007,3.966 -7.482,4.039 -7.594,4.057 -7.711,4.073 -7.815,4.032 -7.92,3.991 -7.996,3.899 -8.048,3.8 -8.226,3.458 -8.146,3.045 -8.063,2.669 l 0.348,-1.588 c 0.063,-0.281 0.166,-0.61 0.443,-0.691 0.203,-0.059 0.414,0.046 0.601,0.144 0.229,0.119 0.463,0.228 0.697,0.336 0.108,-0.351 0.238,-0.68 0.368,-0.976 0.346,-0.792 1.028,-1.763 2.003,-2.442 l -1.198,-0.996 c 0.285,-0.148 0.571,-0.296 0.856,-0.444 0.944,-0.491 1.938,-0.993 3.002,-0.977 0.187,0.523 0.328,1.062 0.422,1.609 0.546,0.058 1.127,0.212 1.745,0.493 0.853,0.387 1.491,0.97 1.963,1.654 0.365,-0.222 0.707,-0.48 1.01,-0.78 0.039,-0.038 0.086,-0.079 0.139,-0.07 0.046,0.009 0.074,0.052 0.098,0.092 0.229,0.38 0.458,0.76 0.686,1.14 0.378,0.628 0.587,1.144 0.767,1.855 C 5.321,1.177 4.796,1.369 4.229,1.558 4.414,2.746 4.34,3.919 4.144,4.78 4.801,5.05 5.427,5.396 6.001,5.815 6.028,5.836 6.057,5.857 6.068,5.889 6.087,5.937 6.062,5.989 6.036,6.034"
                   style="fill:#ffffdf;fill-opacity:1;fill-rule:nonzero;stroke:none"
                   id="path138"
                   inkscape:connector-curvature="0" /></g><g
                 transform="translate(78.3525,260.9116)"
                 id="g144"
                 style="fill:#ffffdf;fill-opacity:1"><path
                   d="m 0,0 c -0.182,0 -0.367,0.009 -0.556,0.025 -3.146,0.276 -6.415,3.097 -6.576,7.952 -0.128,3.824 1.162,7.186 3.451,8.996 1.567,1.238 3.49,1.631 5.409,1.109 0.721,-0.197 1.147,-0.942 0.95,-1.664 -0.197,-0.721 -0.942,-1.147 -1.663,-0.95 -1.1,0.3 -2.115,0.092 -3.016,-0.621 C -3.594,13.588 -4.522,10.991 -4.425,8.068 -4.315,4.787 -2.276,2.896 -0.319,2.724 1.352,2.578 2.593,3.649 3.004,5.591 3.159,6.323 3.875,6.792 4.61,6.636 5.342,6.481 5.81,5.762 5.655,5.03 5.112,2.465 3.166,0 0,0"
                   style="fill:#ffffdf;fill-opacity:1;fill-rule:nonzero;stroke:none"
                   id="path142"
                   inkscape:connector-curvature="0" /></g><g
                 transform="translate(87.8213,278.5024)"
                 id="g148"
                 style="fill:#ffffdf;fill-opacity:1"><path
                   d="m 0,0 c -1.429,0.248 -2.649,-0.914 -2.405,-2.36 0.222,-1.322 1.913,-1.934 3.031,-1.345 0.191,0.101 0.361,0.248 0.5,0.42 0.257,0.182 0.46,0.444 0.564,0.767 C 2.052,-1.394 1.099,-0.191 0,0"
                   style="fill:#ffffdf;fill-opacity:1;fill-rule:nonzero;stroke:none"
                   id="path146"
                   inkscape:connector-curvature="0" /></g><g
                 transform="translate(89.293,269.7964)"
                 id="g152"
                 style="fill:#ffffdf;fill-opacity:1"><path
                   d="M 0,0 C 0,0.003 0,0.003 -0.001,0.005 -0.002,0.004 -0.003,0.004 -0.004,0.003 -0.003,0.001 -0.001,0.001 0,0"
                   style="fill:#ffffdf;fill-opacity:1;fill-rule:nonzero;stroke:none"
                   id="path150"
                   inkscape:connector-curvature="0" /></g><g
                 transform="translate(91.2466,269.7461)"
                 id="g156"
                 style="fill:#ffffdf;fill-opacity:1"><path
                   d="M 0,0 C -0.074,0.22 -0.185,0.402 -0.332,0.553 -0.594,1.144 -1.157,1.555 -1.797,1.641 -2.522,1.739 -3.256,1.433 -3.638,0.788 -3.982,0.206 -4.014,-0.491 -3.753,-1.108 -3.393,-1.962 -2.52,-2.405 -1.617,-2.284 -0.646,-2.153 0.34,-1.009 0,0"
                   style="fill:#ffffdf;fill-opacity:1;fill-rule:nonzero;stroke:none"
                   id="path154"
                   inkscape:connector-curvature="0" /></g><g
                 transform="translate(96.7236,265.4585)"
                 id="g160"
                 style="fill:#ffffdf;fill-opacity:1"><path
                   d="m 0,0 c -0.692,0 -1.282,0.528 -1.347,1.23 l -1.727,18.729 c -0.069,0.746 0.479,1.405 1.224,1.474 0.749,0.071 1.405,-0.48 1.474,-1.225 L 1.351,1.479 C 1.419,0.734 0.871,0.075 0.126,0.006 0.083,0.002 0.042,0 0,0"
                   style="fill:#ffffdf;fill-opacity:1;fill-rule:nonzero;stroke:none"
                   id="path158"
                   inkscape:connector-curvature="0" /></g></g></g></g><g
           id="g166"
           transform="translate(91.8413,162.9717)"><path
             d="m 0,0 c -1.381,0 -2.525,1.119 -2.525,2.5 0,1.381 1.094,2.5 2.475,2.5 H 0 C 1.381,5 2.5,3.881 2.5,2.5 2.5,1.119 1.381,0 0,0"
             style="fill:#d2d2d2;fill-opacity:1;fill-rule:nonzero;stroke:none"
             id="path168"
             inkscape:connector-curvature="0" /></g><g
           id="g170"
           transform="translate(101.6714,162.9717)"><path
             d="m 0,0 c -1.381,0 -2.549,1.119 -2.549,2.5 0,1.381 1.071,2.5 2.452,2.5 H 0 C 1.381,5 2.5,3.881 2.5,2.5 2.5,1.119 1.381,0 0,0 M 9.831,0 C 8.45,0 7.282,1.119 7.282,2.5 7.282,3.881 8.353,5 9.733,5 h 0.098 c 1.38,0 2.5,-1.119 2.5,-2.5 0,-1.381 -1.12,-2.5 -2.5,-2.5 m 9.83,0 c -1.381,0 -2.549,1.119 -2.549,2.5 0,1.381 1.071,2.5 2.451,2.5 h 0.098 c 1.381,0 2.5,-1.119 2.5,-2.5 0,-1.381 -1.119,-2.5 -2.5,-2.5 m 9.83,0 c -1.381,0 -2.549,1.119 -2.549,2.5 0,1.381 1.071,2.5 2.452,2.5 h 0.097 c 1.381,0 2.5,-1.119 2.5,-2.5 0,-1.381 -1.119,-2.5 -2.5,-2.5 m 9.831,0 c -1.381,0 -2.549,1.119 -2.549,2.5 0,1.381 1.071,2.5 2.452,2.5 h 0.097 c 1.381,0 2.5,-1.119 2.5,-2.5 0,-1.381 -1.119,-2.5 -2.5,-2.5 m 9.83,0 c -1.381,0 -2.548,1.119 -2.548,2.5 0,1.381 1.07,2.5 2.451,2.5 h 0.097 c 1.381,0 2.5,-1.119 2.5,-2.5 0,-1.381 -1.119,-2.5 -2.5,-2.5"
             style="fill:#d2d2d2;fill-opacity:1;fill-rule:nonzero;stroke:none"
             id="path172"
             inkscape:connector-curvature="0" /></g><g
           id="g174"
           transform="translate(160.6064,162.9717)"><path
             d="m 0,0 c -1.381,0 -2.525,1.119 -2.525,2.5 0,1.381 1.094,2.5 2.475,2.5 H 0 C 1.381,5 2.5,3.881 2.5,2.5 2.5,1.119 1.381,0 0,0"
             style="fill:#d2d2d2;fill-opacity:1;fill-rule:nonzero;stroke:none"
             id="path176"
             inkscape:connector-curvature="0" /></g><g
           id="g178"
           transform="translate(380.3525,331.2769)"><path
             d="m 0,0 c -1.381,0 -2.525,1.119 -2.525,2.5 0,1.381 1.093,2.5 2.474,2.5 H 0 C 1.381,5 2.5,3.881 2.5,2.5 2.5,1.119 1.381,0 0,0"
             style="fill:#d2d2d2;fill-opacity:1;fill-rule:nonzero;stroke:none"
             id="path180"
             inkscape:connector-curvature="0" /></g><g
           id="g182"
           transform="translate(390.1826,331.2769)"><path
             d="m 0,0 c -1.381,0 -2.549,1.119 -2.549,2.5 0,1.381 1.07,2.5 2.451,2.5 H 0 C 1.381,5 2.5,3.881 2.5,2.5 2.5,1.119 1.381,0 0,0 M 9.83,0 C 8.449,0 7.281,1.119 7.281,2.5 7.281,3.881 8.352,5 9.732,5 H 9.83 c 1.381,0 2.5,-1.119 2.5,-2.5 C 12.33,1.119 11.211,0 9.83,0 m 9.83,0 c -1.381,0 -2.549,1.119 -2.549,2.5 0,1.381 1.072,2.5 2.452,2.5 h 0.097 c 1.381,0 2.5,-1.119 2.5,-2.5 0,-1.381 -1.119,-2.5 -2.5,-2.5 m 9.831,0 c -1.381,0 -2.549,1.119 -2.549,2.5 0,1.381 1.071,2.5 2.452,2.5 h 0.097 c 1.381,0 2.5,-1.119 2.5,-2.5 0,-1.381 -1.119,-2.5 -2.5,-2.5 m 9.83,0 c -1.381,0 -2.549,1.119 -2.549,2.5 0,1.381 1.071,2.5 2.452,2.5 h 0.097 c 1.381,0 2.5,-1.119 2.5,-2.5 0,-1.381 -1.119,-2.5 -2.5,-2.5 m 9.83,0 c -1.38,0 -2.548,1.119 -2.548,2.5 0,1.381 1.071,2.5 2.452,2.5 h 0.096 c 1.381,0 2.5,-1.119 2.5,-2.5 0,-1.381 -1.119,-2.5 -2.5,-2.5"
             style="fill:#d2d2d2;fill-opacity:1;fill-rule:nonzero;stroke:none"
             id="path184"
             inkscape:connector-curvature="0" /></g><g
           id="g186"
           transform="translate(449.1172,331.2769)"><path
             d="m 0,0 c -1.381,0 -2.525,1.119 -2.525,2.5 0,1.381 1.094,2.5 2.475,2.5 H 0 C 1.381,5 2.5,3.881 2.5,2.5 2.5,1.119 1.381,0 0,0"
             style="fill:#d2d2d2;fill-opacity:1;fill-rule:nonzero;stroke:none"
             id="path188"
             inkscape:connector-curvature="0" /></g><g
           id="g190"
           transform="translate(50.9077,314.2705)"><path
             d="m 0,0 c -1.381,0 -2.525,1.119 -2.525,2.5 0,1.381 1.094,2.5 2.475,2.5 H 0 C 1.381,5 2.5,3.881 2.5,2.5 2.5,1.119 1.381,0 0,0"
             style="fill:#d2d2d2;fill-opacity:1;fill-rule:nonzero;stroke:none"
             id="path192"
             inkscape:connector-curvature="0" /></g><g
           id="g194"
           transform="translate(60.7378,314.2705)"><path
             d="m 0,0 c -1.381,0 -2.549,1.119 -2.549,2.5 0,1.381 1.071,2.5 2.452,2.5 H 0 C 1.381,5 2.5,3.881 2.5,2.5 2.5,1.119 1.381,0 0,0 M 9.831,0 C 8.45,0 7.282,1.119 7.282,2.5 7.282,3.881 8.353,5 9.733,5 h 0.098 c 1.38,0 2.5,-1.119 2.5,-2.5 0,-1.381 -1.12,-2.5 -2.5,-2.5 m 9.83,0 c -1.381,0 -2.549,1.119 -2.549,2.5 0,1.381 1.071,2.5 2.451,2.5 h 0.098 c 1.381,0 2.5,-1.119 2.5,-2.5 0,-1.381 -1.119,-2.5 -2.5,-2.5 m 9.83,0 c -1.381,0 -2.549,1.119 -2.549,2.5 0,1.381 1.071,2.5 2.452,2.5 h 0.097 c 1.381,0 2.5,-1.119 2.5,-2.5 0,-1.381 -1.119,-2.5 -2.5,-2.5 m 9.831,0 c -1.381,0 -2.549,1.119 -2.549,2.5 0,1.381 1.071,2.5 2.452,2.5 h 0.097 c 1.381,0 2.5,-1.119 2.5,-2.5 0,-1.381 -1.119,-2.5 -2.5,-2.5 m 9.83,0 c -1.381,0 -2.548,1.119 -2.548,2.5 0,1.381 1.07,2.5 2.451,2.5 h 0.097 c 1.381,0 2.5,-1.119 2.5,-2.5 0,-1.381 -1.119,-2.5 -2.5,-2.5"
             style="fill:#d2d2d2;fill-opacity:1;fill-rule:nonzero;stroke:none"
             id="path196"
             inkscape:connector-curvature="0" /></g><g
           id="g198"
           transform="translate(119.6733,314.2705)"><path
             d="m 0,0 c -1.381,0 -2.525,1.119 -2.525,2.5 0,1.381 1.094,2.5 2.475,2.5 H 0 C 1.381,5 2.5,3.881 2.5,2.5 2.5,1.119 1.381,0 0,0"
             style="fill:#d2d2d2;fill-opacity:1;fill-rule:nonzero;stroke:none"
             id="path200"
             inkscape:connector-curvature="0" /></g><g
           id="g202"
           transform="translate(441.2559,296.9028)"><path
             d="m 0,0 c -1.586,0 -2.877,-1.291 -2.877,-2.878 0,-1.587 1.291,-2.878 2.877,-2.878 1.588,0 2.879,1.291 2.879,2.878 C 2.879,-1.291 1.588,0 0,0 m 0,-8.417 c -3.053,0 -5.537,2.485 -5.537,5.539 0,3.054 2.484,5.538 5.537,5.538 3.055,0 5.539,-2.484 5.539,-5.538 0,-3.054 -2.484,-5.539 -5.539,-5.539"
             style="fill:#eddcce;fill-opacity:1;fill-rule:nonzero;stroke:none"
             id="path204"
             inkscape:connector-curvature="0" /></g><g
           id="g206"
           transform="translate(317.5752,429.4224)"><path
             d="m 0,0 c -1.586,0 -2.877,-1.291 -2.877,-2.878 0,-1.587 1.291,-2.878 2.877,-2.878 1.587,0 2.879,1.291 2.879,2.878 C 2.879,-1.291 1.587,0 0,0 m 0,-8.417 c -3.053,0 -5.537,2.485 -5.537,5.539 0,3.054 2.484,5.538 5.537,5.538 3.055,0 5.539,-2.484 5.539,-5.538 0,-3.054 -2.484,-5.539 -5.539,-5.539"
             style="fill:#eddcce;fill-opacity:1;fill-rule:nonzero;stroke:none"
             id="path208"
             inkscape:connector-curvature="0" /></g><g
           id="g210"
           transform="translate(239.8638,411.4395)"><path
             d="m 0,0 c -1.587,0 -2.878,-1.291 -2.878,-2.878 0,-1.587 1.291,-2.878 2.878,-2.878 1.587,0 2.878,1.291 2.878,2.878 C 2.878,-1.291 1.587,0 0,0 m 0,-8.416 c -3.054,0 -5.538,2.484 -5.538,5.538 0,3.054 2.484,5.538 5.538,5.538 3.054,0 5.538,-2.484 5.538,-5.538 0,-3.054 -2.484,-5.538 -5.538,-5.538"
             style="fill:#eddcce;fill-opacity:1;fill-rule:nonzero;stroke:none"
             id="path212"
             inkscape:connector-curvature="0" /></g><g
           id="g214"
           transform="translate(126.6982,394.5347)"><path
             d="m 0,0 c -1.586,0 -2.878,-1.291 -2.878,-2.878 0,-1.587 1.292,-2.878 2.878,-2.878 1.587,0 2.878,1.291 2.878,2.878 C 2.878,-1.291 1.587,0 0,0 m 0,-8.416 c -3.053,0 -5.538,2.484 -5.538,5.538 0,3.054 2.485,5.538 5.538,5.538 3.054,0 5.539,-2.484 5.539,-5.538 0,-3.054 -2.485,-5.538 -5.539,-5.538"
             style="fill:#eddcce;fill-opacity:1;fill-rule:nonzero;stroke:none"
             id="path216"
             inkscape:connector-curvature="0" /></g><g
           id="g218"
           transform="translate(68.6011,195.0811)"><path
             d="m 0,0 c -1.587,0 -2.878,-1.291 -2.878,-2.878 0,-1.586 1.291,-2.877 2.878,-2.877 1.586,0 2.878,1.291 2.878,2.877 C 2.878,-1.291 1.586,0 0,0 m 0,-8.415 c -3.054,0 -5.539,2.484 -5.539,5.537 0,3.054 2.485,5.538 5.539,5.538 3.054,0 5.538,-2.484 5.538,-5.538 0,-3.053 -2.484,-5.537 -5.538,-5.537"
             style="fill:#eddcce;fill-opacity:1;fill-rule:nonzero;stroke:none"
             id="path220"
             inkscape:connector-curvature="0" /></g><g
           id="g222"
           transform="translate(142.4526,136.8838)"><path
             d="m 0,0 c -1.587,0 -2.878,-1.291 -2.878,-2.878 0,-1.587 1.291,-2.878 2.878,-2.878 1.587,0 2.878,1.291 2.878,2.878 C 2.878,-1.291 1.587,0 0,0 m 0,-8.416 c -3.054,0 -5.538,2.484 -5.538,5.538 0,3.054 2.484,5.538 5.538,5.538 3.054,0 5.539,-2.484 5.539,-5.538 0,-3.054 -2.485,-5.538 -5.539,-5.538"
             style="fill:#eddcce;fill-opacity:1;fill-rule:nonzero;stroke:none"
             id="path224"
             inkscape:connector-curvature="0" /></g><g
           id="g226"
           transform="translate(428.2158,214.8389)"><path
             d="m 0,0 c -1.587,0 -2.878,-1.291 -2.878,-2.878 0,-1.587 1.291,-2.879 2.878,-2.879 1.586,0 2.878,1.292 2.878,2.879 C 2.878,-1.291 1.586,0 0,0 m 0,-8.416 c -3.054,0 -5.538,2.484 -5.538,5.538 0,3.054 2.484,5.538 5.538,5.538 3.054,0 5.537,-2.484 5.537,-5.538 0,-3.054 -2.483,-5.538 -5.537,-5.538"
             style="fill:#eddcce;fill-opacity:1;fill-rule:nonzero;stroke:none"
             id="path228"
             inkscape:connector-curvature="0" /></g><g
           id="g230"
           transform="translate(188.0078,260.9717)"><path
             d="m 0,0 c -1.587,0 -2.878,-1.291 -2.878,-2.877 0,-1.588 1.291,-2.879 2.878,-2.879 1.587,0 2.878,1.291 2.878,2.879 C 2.878,-1.291 1.587,0 0,0 m 0,-8.416 c -3.054,0 -5.538,2.484 -5.538,5.539 0,3.053 2.484,5.537 5.538,5.537 3.054,0 5.538,-2.484 5.538,-5.537 0,-3.055 -2.484,-5.539 -5.538,-5.539"
             style="fill:#eddcce;fill-opacity:1;fill-rule:nonzero;stroke:none"
             id="path232"
             inkscape:connector-curvature="0" /></g><g
           id="g234"
           transform="translate(118.2793,303.291)"><path
             d="m 0,0 c -1.587,0 -2.878,-1.292 -2.878,-2.878 0,-1.588 1.291,-2.879 2.878,-2.879 1.587,0 2.878,1.291 2.878,2.879 C 2.878,-1.292 1.587,0 0,0 m 0,-8.417 c -3.054,0 -5.538,2.484 -5.538,5.539 0,3.054 2.484,5.538 5.538,5.538 3.054,0 5.538,-2.484 5.538,-5.538 0,-3.055 -2.484,-5.539 -5.538,-5.539"
             style="fill:#eddcce;fill-opacity:1;fill-rule:nonzero;stroke:none"
             id="path236"
             inkscape:connector-curvature="0" /></g><g
           id="g238"
           transform="translate(184.7251,417.3638)"><path
             d="m 0,0 h -2.011 v 2.01 c 0,0.735 -0.595,1.33 -1.33,1.33 -0.735,0 -1.33,-0.595 -1.33,-1.33 V 0 h -2.011 c -0.735,0 -1.33,-0.596 -1.33,-1.33 0,-0.735 0.595,-1.33 1.33,-1.33 h 2.011 v -2.011 c 0,-0.735 0.595,-1.33 1.33,-1.33 0.735,0 1.33,0.595 1.33,1.33 V -2.66 H 0 c 0.735,0 1.33,0.595 1.33,1.33 C 1.33,-0.596 0.735,0 0,0"
             style="fill:#eddcce;fill-opacity:1;fill-rule:nonzero;stroke:none"
             id="path240"
             inkscape:connector-curvature="0" /></g><g
           id="g242"
           transform="translate(61.2173,260.1455)"><path
             d="m 0,0 h -2.011 v 2.011 c 0,0.735 -0.595,1.33 -1.33,1.33 -0.735,0 -1.33,-0.595 -1.33,-1.33 V 0 h -2.011 c -0.735,0 -1.33,-0.595 -1.33,-1.33 0,-0.734 0.595,-1.33 1.33,-1.33 h 2.011 v -2.011 c 0,-0.735 0.595,-1.33 1.33,-1.33 0.735,0 1.33,0.595 1.33,1.33 V -2.66 H 0 c 0.734,0 1.33,0.596 1.33,1.33 C 1.33,-0.595 0.734,0 0,0"
             style="fill:#eddcce;fill-opacity:1;fill-rule:nonzero;stroke:none"
             id="path244"
             inkscape:connector-curvature="0" /></g><g
           id="g246"
           transform="translate(378.6592,135.0615)"><path
             d="m 0,0 h -2.012 v 2.011 c 0,0.734 -0.594,1.33 -1.33,1.33 -0.734,0 -1.33,-0.596 -1.33,-1.33 V 0 h -2.01 c -0.735,0 -1.33,-0.596 -1.33,-1.33 0,-0.735 0.595,-1.33 1.33,-1.33 h 2.01 v -2.012 c 0,-0.734 0.596,-1.329 1.33,-1.329 0.736,0 1.33,0.595 1.33,1.329 V -2.66 H 0 c 0.734,0 1.33,0.595 1.33,1.33 C 1.33,-0.596 0.734,0 0,0"
             style="fill:#eddcce;fill-opacity:1;fill-rule:nonzero;stroke:none"
             id="path248"
             inkscape:connector-curvature="0" /></g><g
           id="g250"
           transform="translate(324.2002,250.7139)"><path
             d="m 0,0 h -2.011 v 2.011 c 0,0.734 -0.595,1.33 -1.33,1.33 -0.735,0 -1.33,-0.596 -1.33,-1.33 V 0 h -2.011 c -0.734,0 -1.33,-0.595 -1.33,-1.33 0,-0.734 0.596,-1.33 1.33,-1.33 h 2.011 v -2.011 c 0,-0.735 0.595,-1.33 1.33,-1.33 0.735,0 1.33,0.595 1.33,1.33 V -2.66 H 0 c 0.735,0 1.33,0.596 1.33,1.33 C 1.33,-0.595 0.735,0 0,0"
             style="fill:#eddcce;fill-opacity:1;fill-rule:nonzero;stroke:none"
             id="path252"
             inkscape:connector-curvature="0" /></g><g
           id="g254"
           transform="translate(123.6563,244.8027)"><path
             d="m 0,0 h -2.011 v 2.011 c 0,0.734 -0.595,1.33 -1.33,1.33 -0.735,0 -1.33,-0.596 -1.33,-1.33 V 0 h -2.011 c -0.735,0 -1.33,-0.596 -1.33,-1.33 0,-0.734 0.595,-1.33 1.33,-1.33 h 2.011 v -2.011 c 0,-0.735 0.595,-1.33 1.33,-1.33 0.735,0 1.33,0.595 1.33,1.33 V -2.66 H 0 c 0.735,0 1.33,0.596 1.33,1.33 C 1.33,-0.596 0.735,0 0,0"
             style="fill:#eddcce;fill-opacity:1;fill-rule:nonzero;stroke:none"
             id="path256"
             inkscape:connector-curvature="0" /></g><g
           id="g258"
           transform="translate(73.9082,356.9404)"><path
             d="m 0,0 h -2.011 v 2.011 c 0,0.735 -0.595,1.33 -1.33,1.33 -0.735,0 -1.33,-0.595 -1.33,-1.33 V 0 h -2.011 c -0.735,0 -1.33,-0.595 -1.33,-1.33 0,-0.734 0.595,-1.33 1.33,-1.33 h 2.011 v -2.011 c 0,-0.735 0.595,-1.33 1.33,-1.33 0.735,0 1.33,0.595 1.33,1.33 V -2.66 H 0 c 0.734,0 1.33,0.596 1.33,1.33 C 1.33,-0.595 0.734,0 0,0"
             style="fill:#eddcce;fill-opacity:1;fill-rule:nonzero;stroke:none"
             id="path260"
             inkscape:connector-curvature="0" /></g><g
           id="g262"
           transform="translate(287.0732,393.1484)"><path
             d="m 0,0 h -2.011 v 2.01 c 0,0.735 -0.595,1.33 -1.33,1.33 -0.734,0 -1.33,-0.595 -1.33,-1.33 V 0 h -2.011 c -0.734,0 -1.33,-0.596 -1.33,-1.331 0,-0.734 0.596,-1.329 1.33,-1.329 h 2.011 v -2.011 c 0,-0.735 0.596,-1.33 1.33,-1.33 0.735,0 1.33,0.595 1.33,1.33 V -2.66 H 0 c 0.735,0 1.33,0.595 1.33,1.329 C 1.33,-0.596 0.735,0 0,0"
             style="fill:#eddcce;fill-opacity:1;fill-rule:nonzero;stroke:none"
             id="path264"
             inkscape:connector-curvature="0" /></g><g
           id="g266"
           transform="translate(349.0332,343.749)"><path
             d="m 0,0 h -2.011 v 2.01 c 0,0.735 -0.595,1.33 -1.33,1.33 -0.734,0 -1.33,-0.595 -1.33,-1.33 V 0 h -2.011 c -0.734,0 -1.33,-0.596 -1.33,-1.331 0,-0.734 0.596,-1.329 1.33,-1.329 h 2.011 v -2.011 c 0,-0.735 0.596,-1.33 1.33,-1.33 0.735,0 1.33,0.595 1.33,1.33 V -2.66 H 0 c 0.735,0 1.33,0.595 1.33,1.329 C 1.33,-0.596 0.735,0 0,0"
             style="fill:#eddcce;fill-opacity:1;fill-rule:nonzero;stroke:none"
             id="path268"
             inkscape:connector-curvature="0" /></g><g
           id="g270"
           transform="translate(432.8604,390.374)"><path
             d="m 0,0 h -2.011 v 2.011 c 0,0.734 -0.595,1.33 -1.33,1.33 -0.735,0 -1.33,-0.596 -1.33,-1.33 V 0 h -2.011 c -0.735,0 -1.33,-0.595 -1.33,-1.33 0,-0.735 0.595,-1.33 1.33,-1.33 h 2.011 v -2.011 c 0,-0.735 0.595,-1.33 1.33,-1.33 0.735,0 1.33,0.595 1.33,1.33 V -2.66 H 0 c 0.734,0 1.33,0.595 1.33,1.33 C 1.33,-0.595 0.734,0 0,0"
             style="fill:#eddcce;fill-opacity:1;fill-rule:nonzero;stroke:none"
             id="path272"
             inkscape:connector-curvature="0" /></g><g
           id="g274"
           transform="translate(217.7769,231.2197)"><path
             d="m 0,0 c -44.064,-37.036 -68.979,13.227 -59.065,39.198 0,0 12.853,-7.374 13.446,1.306 0.593,8.68 -8.088,2.529 -11.795,5.812 -3.707,3.284 -2.31,7.759 1.101,8.88 3.411,1.122 4.953,0 5.652,-4.291 0.629,-3.865 6.662,-4.336 7.996,-1.073 1.335,3.262 0.491,13.951 -15.079,14.396 -0.445,2.224 4.513,20.717 -3.963,20.606 -6.762,-0.088 -4.11,-14.89 -3.962,-19.042 -2.373,6.97 -2.679,18.639 -9.796,15.08 -7.118,-3.559 4.072,-19.263 4.072,-19.263 0,0 -7.628,12.933 -12.218,6.935 -3.302,-4.316 0.881,-8.255 6.851,-12.59 4.62,-3.355 1.88,-13.116 1.186,-16.756 -2.224,-11.67 -8.975,-57.639 26.841,-72.315 18.684,-7.656 38.077,-1.334 38.077,-1.334 z"
             style="fill:#ffc9ae;fill-opacity:1;fill-rule:nonzero;stroke:none"
             id="path276"
             inkscape:connector-curvature="0" /></g><g
           id="g278"
           transform="translate(217.7778,231.2246)"><path
             d="m 0,0 -10.66,-34.46 c 0,0 -19.39,-6.32 -38.07,1.34 -29.56,12.11 -30.13,45.53 -28.17,63.4 -0.29,-18.35 4.23,-43.18 28.82,-53.25 18.68,-7.66 38.08,-1.341 38.08,-1.341 l 6.7,21.67 C -2.22,-1.82 -1.11,-0.94 0,0"
             style="fill:#ffb890;fill-opacity:1;fill-rule:nonzero;stroke:none"
             id="path280"
             inkscape:connector-curvature="0" /></g><g
           id="g282"
           transform="translate(282.2236,231.2197)"><path
             d="m 0,0 c 44.063,-37.036 68.979,13.227 59.064,39.198 0,0 -12.852,-7.374 -13.445,1.306 -0.594,8.68 8.087,2.529 11.794,5.812 3.707,3.284 2.311,7.759 -1.1,8.88 -3.411,1.122 -4.954,0 -5.652,-4.291 -0.63,-3.865 -6.662,-4.336 -7.997,-1.073 -1.335,3.262 -0.491,13.951 15.079,14.396 0.445,2.224 -4.513,20.717 3.963,20.606 6.763,-0.088 4.111,-14.89 3.963,-19.042 2.372,6.97 2.678,18.639 9.796,15.08 7.118,-3.559 -4.072,-19.263 -4.072,-19.263 0,0 7.628,12.933 12.217,6.935 3.302,-4.316 -0.881,-8.255 -6.85,-12.59 -4.62,-3.355 -1.88,-13.116 -1.187,-16.756 2.225,-11.67 8.975,-57.639 -26.84,-72.315 -18.684,-7.656 -38.078,-1.334 -38.078,-1.334 z"
             style="fill:#ffc9ae;fill-opacity:1;fill-rule:nonzero;stroke:none"
             id="path284"
             inkscape:connector-curvature="0" /></g><g
           id="g286"
           transform="translate(282.2578,231.2246)"><path
             d="m 0,0 10.66,-34.46 c 0,0 19.39,-6.32 38.07,1.34 29.56,12.11 30.13,45.53 28.17,63.4 C 77.19,11.93 72.67,-12.9 48.08,-22.97 29.4,-30.63 10,-24.311 10,-24.311 L 3.3,-2.641 C 2.22,-1.82 1.11,-0.94 0,0"
             style="fill:#ffb890;fill-opacity:1;fill-rule:nonzero;stroke:none"
             id="path288"
             inkscape:connector-curvature="0" /></g><g
           id="g290"
           transform="translate(303.752,223.4863)"><path
             d="M 0,0 C -5.162,0.696 -19.3,6.916 -24.635,10.171 -37.783,20.563 -68.4,21.223 -81.779,11.153 -83.021,10.219 -102.716,-0.525 -107.977,0 c -4.273,0.427 -5.585,-35.115 0,-36.663 2.031,-0.563 3.958,-0.954 5.595,-1.228 -0.732,-23.289 -1.366,-59.338 2.784,-63.994 5.039,-5.654 86.557,-5.654 91.595,0 4.167,4.676 3.358,40.815 2.569,64.023 1.603,0.271 3.469,0.655 5.434,1.199 C 5.585,-35.115 4.256,-0.574 0,0"
             style="fill:#363636;fill-opacity:1;fill-rule:nonzero;stroke:none"
             id="path292"
             inkscape:connector-curvature="0" /></g><g
           id="g294"
           transform="translate(259.5986,247.8262)"><path
             d="m 0,0 h -19.294 c 0,-11.786 -1.08,-17.679 9.647,-17.679 C 1.079,-17.679 0,-11.786 0,0"
             style="fill:#ffb890;fill-opacity:1;fill-rule:nonzero;stroke:none"
             id="path296"
             inkscape:connector-curvature="0" /></g><g
           id="g298"
           transform="translate(356.1328,106.2168)"><path
             d="M 0,0 C -4.582,18.78 -35.599,24.322 -52.284,24.014 H -157.368 C -174.054,24.322 -205.071,18.78 -209.653,0 c -4.532,-18.574 0.796,-54.005 104.827,-33.929 C -0.795,-54.005 4.532,-18.574 0,0"
             style="fill:#073d4c;fill-opacity:1;fill-rule:nonzero;stroke:none"
             id="path300"
             inkscape:connector-curvature="0" /></g><g
           id="g302"
           transform="translate(356.1328,106.5693)"><path
             d="m 0,0 c 5.341,-19.016 -0.898,-55.274 -108.303,-33.537 0,0 3.182,20.494 -1.711,34.468 C -47.569,23.381 -4.257,15.156 0,0"
             style="fill:#074559;fill-opacity:1;fill-rule:nonzero;stroke:none"
             id="path304"
             inkscape:connector-curvature="0" /></g><g
           id="g306"
           transform="translate(247.8276,73.0342)"><path
             d="m 0,0 c 0,0 0.34,2.17 0.63,5.58 96.42,-19.1 109.88,9.231 107.44,28.681 0.09,-0.24 0.17,-0.481 0.24,-0.721 C 113.65,14.521 107.41,-21.739 0,0"
             style="fill:#073d4c;fill-opacity:1;fill-rule:nonzero;stroke:none"
             id="path308"
             inkscape:connector-curvature="0" /></g><g
           id="g310"
           transform="translate(290.6289,66.3838)"><path
             d="M 0,0 C -3.098,-0.298 -6.914,-0.161 -11.028,0.243 -26.63,1.769 -46.394,7.152 -46.394,7.152 l 10.889,28.794 c 0,0 15.061,0.648 27.193,0.547 C -2.289,36.439 3.014,36.202 5.399,35.615 15.909,33.012 16.274,1.583 0,0"
             style="fill:#ffbe13;fill-opacity:1;fill-rule:nonzero;stroke:none"
             id="path312"
             inkscape:connector-curvature="0" /></g><g
           id="g314"
           transform="translate(254.9189,94.4102)"><path
             d="m 0,0 c 0.402,-0.043 24.391,-0.799 23.68,-1.137 -0.71,-0.338 -1.618,-15.249 -1.618,-15.249 0,0 -24.295,3.405 -24.036,3.79 C -1.715,-12.21 0,0 0,0"
             style="fill:#919191;fill-opacity:1;fill-rule:nonzero;stroke:none"
             id="path316"
             inkscape:connector-curvature="0" /></g><g
           id="g318"
           transform="translate(290.6289,66.3838)"><path
             d="m 0,0 c -3.098,-0.298 -6.914,-0.161 -11.028,0.243 -3.287,4.815 -4.965,11.85 -4.16,19.443 0.723,6.804 3.307,12.752 6.876,16.807 C -2.289,36.439 3.014,36.202 5.399,35.615 15.909,33.012 16.274,1.583 0,0"
             style="fill:#ffffff;fill-opacity:1;fill-rule:nonzero;stroke:none"
             id="path320"
             inkscape:connector-curvature="0" /></g><g
           id="g322"
           transform="translate(290.6289,66.3838)"><path
             d="m 0,0 c -1.857,-0.186 -3.982,-0.204 -6.274,-0.107 0.426,0.028 0.836,0.057 1.23,0.097 16.281,1.574 15.908,33.012 5.399,35.615 -2.536,0.628 -6.489,0.884 -8.667,0.884 4.826,0 10.533,-0.089 13.711,-0.874 C 15.909,33.012 16.274,1.583 0,0"
             style="fill:#d1d1d1;fill-opacity:1;fill-rule:nonzero;stroke:none"
             id="path324"
             inkscape:connector-curvature="0" /></g><g
           id="g326"
           transform="translate(274.4355,75.1006)"><path
             d="M 0,0 C -0.654,0 -1.256,0.432 -1.442,1.093 -2.681,5.479 -1.949,10.989 -1.036,15.07 -2.821,11.928 -4.445,7.253 -3.917,2.779 -3.819,1.957 -4.407,1.211 -5.23,1.114 c -0.828,-0.106 -1.569,0.49 -1.666,1.314 -0.961,8.131 4.412,18.636 8.643,19.352 0.524,0.092 1.059,-0.107 1.4,-0.516 0.343,-0.41 0.442,-0.97 0.261,-1.472 C 3.368,19.684 -0.503,8.808 1.444,1.907 1.67,1.11 1.206,0.281 0.408,0.057 0.272,0.018 0.135,0 0,0"
             style="fill:#d1d1d1;fill-opacity:1;fill-rule:nonzero;stroke:none"
             id="path328"
             inkscape:connector-curvature="0" /></g><g
           id="g330"
           transform="translate(262.9541,76.8486)"><path
             d="m 0,0 c -0.75,0 -1.397,0.561 -1.487,1.324 -0.962,8.131 4.411,18.637 8.642,19.353 0.812,0.14 1.59,-0.411 1.729,-1.229 C 9.022,18.632 8.473,17.857 7.655,17.72 5.886,17.42 0.595,9.258 1.491,1.676 1.589,0.854 1.001,0.107 0.178,0.011 0.118,0.003 0.059,0 0,0"
             style="fill:#d1d1d1;fill-opacity:1;fill-rule:nonzero;stroke:none"
             id="path332"
             inkscape:connector-curvature="0" /></g><g
           id="g334"
           transform="translate(256.8818,77.4932)"><path
             d="M 0,0 C -0.75,0 -1.397,0.561 -1.487,1.324 -2.449,9.454 2.923,19.96 7.154,20.678 7.977,20.817 8.745,20.266 8.884,19.45 9.022,18.634 8.473,17.859 7.656,17.721 5.886,17.42 0.595,9.257 1.491,1.676 1.589,0.854 1.001,0.107 0.178,0.011 0.118,0.003 0.059,0 0,0"
             style="fill:#d1d1d1;fill-opacity:1;fill-rule:nonzero;stroke:none"
             id="path336"
             inkscape:connector-curvature="0" /></g><g
           id="g338"
           transform="translate(274.4922,75.624)"><path
             d="m 0,0 c -0.186,0 -0.373,0.034 -0.556,0.106 -3.986,1.591 -7.034,12.991 -4.386,20.738 0.267,0.784 1.118,1.206 1.904,0.933 0.783,-0.267 1.202,-1.12 0.934,-1.904 C -4.572,12.65 -1.112,3.559 0.556,2.894 1.325,2.586 1.7,1.714 1.394,0.944 1.159,0.357 0.596,0 0,0"
             style="fill:#ffffff;fill-opacity:1;fill-rule:nonzero;stroke:none"
             id="path340"
             inkscape:connector-curvature="0" /></g><g
           id="g342"
           transform="translate(268.4199,76.2686)"><path
             d="m 0,0 c -0.186,0 -0.373,0.034 -0.556,0.106 -3.986,1.591 -7.034,12.991 -4.386,20.738 0.267,0.784 1.119,1.204 1.904,0.933 0.783,-0.267 1.202,-1.12 0.934,-1.904 C -4.572,12.65 -1.112,3.559 0.556,2.894 1.325,2.586 1.7,1.714 1.394,0.944 1.159,0.357 0.596,0 0,0"
             style="fill:#ffffff;fill-opacity:1;fill-rule:nonzero;stroke:none"
             id="path344"
             inkscape:connector-curvature="0" /></g><g
           id="g346"
           transform="translate(262.3467,76.9131)"><path
             d="m 0,0 c -0.186,0 -0.373,0.034 -0.556,0.106 -3.986,1.591 -7.034,12.991 -4.386,20.738 0.267,0.784 1.12,1.204 1.904,0.933 0.783,-0.267 1.202,-1.12 0.934,-1.904 C -4.572,12.65 -1.112,3.559 0.556,2.894 1.325,2.586 1.7,1.714 1.394,0.944 1.159,0.357 0.596,0 0,0"
             style="fill:#ffffff;fill-opacity:1;fill-rule:nonzero;stroke:none"
             id="path348"
             inkscape:connector-curvature="0" /></g><g
           id="g350"
           transform="translate(300.4736,117.3604)"><path
             d="m 0,0 c -5.08,-4.139 -95.386,-4.756 -101.157,0 -5.771,4.757 -12.272,76.742 -8.815,80.199 3.456,3.456 113.997,3.144 118.787,0 C 13.604,77.056 5.08,4.139 0,0"
             style="fill:#c9c9c9;fill-opacity:1;fill-rule:nonzero;stroke:none"
             id="path352"
             inkscape:connector-curvature="0" /></g><g
           id="g354"><g
             id="g356" /><g
             id="g368"><g
               clip-path="url(#clipPath360)"
               id="g366"
               style="opacity:0.21000701"><g
                 transform="translate(304.7676,131.7148)"
                 id="g364"><path
                   d="m 0,0 c -1.47,-7.74 -2.99,-13.29 -4.29,-14.351 -5.08,-4.139 -95.39,-4.759 -101.16,0 -5.77,4.75 -12.27,76.741 -8.82,80.201 0.48,0.469 5.601,-46.804 20.387,-59.596 C -67.989,-16.149 -18.238,-10.621 0,0"
                   style="fill:#c9c9c9;fill-opacity:1;fill-rule:nonzero;stroke:none"
                   id="path362"
                   inkscape:connector-curvature="0" /></g></g></g></g><g
           id="g370"
           transform="translate(264.915,157.0283)"><path
             d="m 0,0 c 0,-9.806 -6.429,-14.797 -14.797,-14.797 -8.369,0 -14.797,4.32 -14.797,14.797 0,10.477 6.625,14.798 14.797,14.798 C -6.625,14.798 0,9.806 0,0"
             style="fill:#ffffff;fill-opacity:1;fill-rule:nonzero;stroke:none"
             id="path372"
             inkscape:connector-curvature="0" /></g><g
           id="g374"
           transform="translate(248.2124,174.373)"><path
             d="M 0,0 C 0,0 -5.701,9.385 -8.746,3.271 -10.374,0 0,0 0,0"
             style="fill:#ffffff;fill-opacity:1;fill-rule:nonzero;stroke:none"
             id="path376"
             inkscape:connector-curvature="0" /></g><g
           id="g378"
           transform="translate(251.3066,174.373)"><path
             d="M 0,0 C 0,0 5.701,9.385 8.745,3.271 10.373,0 0,0 0,0"
             style="fill:#ffffff;fill-opacity:1;fill-rule:nonzero;stroke:none"
             id="path380"
             inkscape:connector-curvature="0" /></g><g
           id="g382"
           transform="translate(181.7915,122.3652)"><path
             d="M 0,0 C 23.234,-1.494 60.975,-14.26 75.831,-18.141 73.605,-21.648 70.213,-49.671 71.717,-51.125 -36.603,-73.092 -39.928,-33.49 -35.312,-15.346 -33.856,-9.626 -24.474,1.573 0,0"
             style="fill:#0c5870;fill-opacity:1;fill-rule:nonzero;stroke:none"
             id="path384"
             inkscape:connector-curvature="0" /></g><g
           id="g386"
           transform="translate(253.5078,71.2441)"><path
             d="M 0,0 C -100.65,-20.41 -110.64,12.33 -107.86,31.63 -104.97,13.301 -84.22,-6.84 0,10.23 Z"
             style="fill:#074559;fill-opacity:1;fill-rule:nonzero;stroke:none"
             id="path388"
             inkscape:connector-curvature="0" /></g><g
           id="g390"
           transform="translate(297.2979,294.1846)"><path
             d="M 0,0 C -0.1,-0.08 -0.271,-0.16 -0.49,-0.23 -1.28,-0.49 -2.79,-0.68 -4.87,-0.82 -5.36,-0.85 -5.89,-0.88 -6.45,-0.9 -6.53,-0.91 -6.61,-0.91 -6.69,-0.91 -7.1,-0.93 -7.521,-0.95 -7.96,-0.96 -8.29,-0.98 -8.64,-0.99 -9,-1 c -0.59,-0.02 -1.21,-0.03 -1.85,-0.04 -18.37,-0.36 -55.01,1.13 -72.33,1.91 -0.32,0.01 -0.63,0.03 -0.93,0.04 -0.91,0.04 -1.76,0.08 -2.54,0.11 -0.42,0.02 -0.81,0.04 -1.19,0.06 -3.06,0.14 -4.83,0.23 -4.83,0.23 -0.51,0.55 -1.06,1.25 -1.62,2.06 -3.41,4.84 -7.35,13.41 -5.08,15.18 2.65,2.07 6.62,0.51 6.7,1.72 0.09,1.21 -6.25,10.52 -3.69,13.45 2.57,2.93 2.57,0.34 3.69,1.38 0.65,0.6 -1.17,4.97 -1.56,9.38 -0.06,0.6 -0.08,1.2 -0.08,1.79 0.04,2.56 0.75,4.95 2.93,6.42 1.51,1.02 2.4,1.83 2.92,2.49 1.71,2.15 -0.36,2.82 2.49,4.4 3.73,2.07 8.56,-1.03 8.56,-1.03 0,0 6.72,12.58 10.17,13.1 3.45,0.52 3.1,-4.65 6.04,-3.96 2.93,0.69 7.24,6.72 10.86,7.93 5.23,1.74 -1.48,-5.52 1.03,-5.52 2.52,0 8.11,6.9 16.21,8.1 2.76,-2.41 -1.21,-6.38 5.17,-7.41 6.38,-1.04 3.45,-6.55 7.59,-8.45 4.14,-1.9 3.62,-0.52 7.76,-1.9 4.13,-1.37 2.63,-2.75 3.809,-7.24 1.191,-4.48 0.151,-5.34 4.551,-7.76 4.4,-2.41 9.01,-4.31 6.699,-9.65 -2.299,-5.35 -2.689,-9.14 0,-8.1 C 5.18,28.72 5.689,28.89 5,25.79 4.31,22.69 -0.86,15.44 3.45,15.44 7.76,15.44 3.92,3.08 0,0"
             style="fill:#b64401;fill-opacity:1;fill-rule:nonzero;stroke:none"
             id="path392"
             inkscape:connector-curvature="0" /></g><g
           id="g394"
           transform="translate(297.2979,294.1846)"><path
             d="M 0,0 C -0.1,-0.08 -0.271,-0.16 -0.49,-0.23 -1.28,-0.49 -2.79,-0.68 -4.87,-0.82 -5.36,-0.85 -5.89,-0.88 -6.45,-0.9 -6.53,-0.91 -6.61,-0.91 -6.69,-0.91 -7.1,-0.93 -7.521,-0.95 -7.96,-0.96 -8.29,-0.98 -8.64,-0.99 -9,-1 c -0.59,-0.02 -1.21,-0.03 -1.85,-0.04 -18.37,-0.36 -55.01,1.13 -72.33,1.91 -0.32,0.01 -0.63,0.03 -0.93,0.04 -0.91,0.04 -1.76,0.08 -2.54,0.11 -0.42,0.02 -0.81,0.04 -1.19,0.06 -3.06,0.14 -4.83,0.23 -4.83,0.23 -0.51,0.55 -1.06,1.25 -1.62,2.06 -3.41,4.84 -7.35,13.41 -5.08,15.18 2.65,2.07 6.62,0.51 6.7,1.72 0.09,1.21 -6.25,10.52 -3.69,13.45 2.57,2.93 2.57,0.34 3.69,1.38 0.65,0.6 -1.17,4.97 -1.56,9.38 -0.06,0.6 -0.08,1.2 -0.08,1.79 0.04,2.56 0.75,4.95 2.93,6.42 1.51,1.02 2.4,1.83 2.92,2.49 1.71,2.15 -0.36,2.82 2.49,4.4 3.73,2.07 8.56,-1.03 8.56,-1.03 0,0 6.72,12.58 10.17,13.1 3.45,0.52 3.1,-4.65 6.04,-3.96 2.93,0.69 7.24,6.72 10.86,7.93 5.23,1.74 -1.48,-5.52 1.03,-5.52 2.52,0 8.11,6.9 16.21,8.1 2.76,-2.41 -1.21,-6.38 5.17,-7.41 6.38,-1.04 3.45,-6.55 7.59,-8.45 4.14,-1.9 3.62,-0.52 7.76,-1.9 4.13,-1.37 2.63,-2.75 3.809,-7.24 1.191,-4.48 0.151,-5.34 4.551,-7.76 4.4,-2.41 9.01,-4.31 6.699,-9.65 -2.299,-5.35 -2.689,-9.14 0,-8.1 C 5.18,28.72 5.689,28.89 5,25.79 4.31,22.69 -0.86,15.44 3.45,15.44 7.76,15.44 3.92,3.08 0,0"
             style="fill:#b64401;fill-opacity:1;fill-rule:nonzero;stroke:none"
             id="path396"
             inkscape:connector-curvature="0" /></g><g
           id="g398"><g
             id="g400" /><g
             id="g412"><g
               clip-path="url(#clipPath404)"
               id="g410"
               style="opacity:0.30999804"><g
                 transform="translate(294.0576,296.4346)"
                 id="g408"><path
                   d="M 0,0 C -0.01,-0.32 -0.02,-0.64 -0.03,-0.96 -0.08,-2 -0.78,-2.75 -1.63,-3.07 -2.14,-3.26 -2.71,-3.3 -3.21,-3.15 c -0.03,0 -0.06,0.01 -0.09,0.02 -0.05,-0.02 -0.099,-0.03 -0.15,-0.03 -0.409,-0.12 -0.85,-0.13 -1.27,-0.05 -0.37,0.06 -0.719,0.21 -1.02,0.44 -0.31,0.24 -0.56,0.56 -0.699,0.96 -0.101,0.27 -0.141,0.58 -0.131,0.92 0.171,3.81 -0.159,7.44 -1.079,11.16 -0.391,1.55 0.639,2.61 1.829,2.85 0.04,0.02 0.091,0.02 0.131,0.03 -0.191,0.82 -0.411,1.63 -0.661,2.43 0,0.01 0,0.01 -0.009,0.02 -0.41,1.326 -0.909,2.632 -1.506,3.898 -0.075,0.15 -0.146,0.303 -0.225,0.452 -0.08,0.15 -0.16,0.3 -0.24,0.44 -0.01,0.02 -0.01,0.03 -0.02,0.05 -0.049,0.11 -0.12,0.23 -0.19,0.34 -0.109,0.22 -0.24,0.44 -0.39,0.65 -0.53,0.87 -1.12,1.68 -1.77,2.43 -0.05,0.06 -0.1,0.13 -0.159,0.19 -3.311,3.78 -7.901,6.16 -12.741,8.09 -11.61,4.61 -25.12,4.27 -37.28,1.42 0.35,-1.69 -0.34,-3.52 -2.5,-4 -6.18,-2.06 -10.91,-5.33 -16.01,-8.94 h -0.01 c -0.67,-0.47 -1.34,-0.95 -2.03,-1.43 0,-2.08 -0.17,-4.22 -0.58,-6.45 -0.03,-0.2 -0.08,-0.4 -0.14,-0.59 0.78,-1.91 1.47,-3.98 1.85,-6.04 0.03,-0.03 0.05,-0.06 0.08,-0.09 0.33,-0.38 0.63,-0.84 0.85,-1.39 0.76,-1.91 0.36,-3.59 -0.63,-4.96 v -0.01 c -0.25,-0.36 -0.54,-0.69 -0.87,-1 -0.02,-0.03 -0.05,-0.05 -0.08,-0.08 -0.34,-0.62 -0.78,-1.17 -1.28,-1.63 -0.65,-0.61 -1.41,-1.08 -2.23,-1.41 -0.23,-0.08 -0.47,-0.16 -0.71,-0.22 -0.14,-0.05 -0.27,-0.08 -0.41,-0.11 -1.72,-0.38 -3.6,-0.17 -5.28,0.74 -0.96,0.52 -1.93,1.27 -2.86,2.19 0.47,0.97 1.08,1.79 1.8,2.37 0.29,0.24 0.58,0.44 0.87,0.61 -3.41,4.84 -7.35,13.41 -5.08,15.18 2.65,2.07 6.62,0.51 6.7,1.72 0.09,1.21 -6.25,10.52 -3.69,13.45 2.57,2.93 2.57,0.34 3.69,1.38 0.65,0.6 -1.17,4.97 -1.56,9.38 0.02,0.01 0.05,0.01 0.07,0.02 -0.08,0.59 -0.14,1.19 -0.15,1.77 0.04,2.56 0.75,4.95 2.93,6.42 1.51,1.02 2.4,1.83 2.92,2.49 0.38,-0.1 0.69,-0.49 0.55,-0.92 -1.19,-3.52 -2.59,-6.21 -1.21,-9.94 0.83,0.95 1.72,1.83 2.67,2.7 1.99,1.82 4.85,-0.78 3.48,-2.79 0.73,-0.03 1.45,-0.14 2.16,-0.33 1.53,3.49 3.27,6.8 7.12,8.46 1.44,0.62 3.4,-0.41 2.85,-2.2 -0.14,-0.44 -0.3,-0.95 -0.46,-1.5 0.36,0.62 0.65,1.11 0.82,1.36 1.24,1.85 3.95,2.35 5.87,1.53 2.03,1.95 4.1,3.86 6.22,5.68 3.52,3.02 6.86,5.07 11.57,4.38 2.96,-0.43 3.11,-4.84 0.8,-6.15 -0.76,-0.48 -1.5,-1 -2.22,-1.52 -0.79,-0.63 -1.53,-1.32 -2.23,-2.09 l -0.02,-0.03 c -0.18,-0.27 -1.7,-2.15 -2.67,-3.24 0.06,-0.08 0.14,-0.14 0.19,-0.22 2.75,0.48 5.59,1.87 7.81,2.77 3.481,1.41 6.72,2.4 10.51,2.45 2.63,0.03 4.04,-2.44 3.79,-4.61 3.54,-0.13 7.08,-0.15 10.641,-0.01 1.479,0.06 2.179,-1.37 2,-2.62 -0.13,-0.82 -0.321,-1.53 -0.591,-2.19 0.961,0.12 1.93,0.2 2.9,0.23 1.15,0.02 1.271,-1.59 0.26,-1.92 -1.989,-0.67 -4.029,-1.15 -6.05,-1.73 -1.17,-0.34 -2.37,1.02 -1.75,2.1 -1.479,-0.51 -2.95,-0.77 -4.45,-0.85 2.24,-0.68 4.41,-1.51 6.5,-2.54 C -4.6,30.5 0.37,14.09 0,0"
                   style="fill:#b64401;fill-opacity:1;fill-rule:nonzero;stroke:none"
                   id="path406"
                   inkscape:connector-curvature="0" /></g></g></g></g><g
           id="g414"
           transform="translate(212.3877,272.9043)"><path
             d="m 0,0 c -0.2,0 -0.39,0.01 -0.58,0.03 -12.29,0.68 -14.81,14.96 -11.47,21.64 0.47,0.97 1.08,1.79 1.8,2.37 0.29,0.24 0.58,0.44 0.87,0.61 2.62,1.58 4.84,0.5 6.42,-0.98 0.46,-0.44 0.87,-0.91 1.22,-1.37 0.58,-0.75 0.99,-1.45 1.18,-1.82 0.1,-0.17 0.15,-0.27 0.15,-0.27 z"
             style="fill:#ffb890;fill-opacity:1;fill-rule:nonzero;stroke:none"
             id="path416"
             inkscape:connector-curvature="0" /></g><g
           id="g418"
           transform="translate(206.6831,285.7046)"><path
             d="M 0,0 C 0.034,0.262 0.084,0.522 0.146,0.78 0.542,2.428 1.503,4.062 2.444,5.463 2.668,5.798 2.235,6.215 1.902,6.015 -1.146,4.179 -3.807,0.242 -2.53,-3.446 -1.552,-6.271 3.084,-8.138 4.58,-4.728 5.756,-2.044 2.93,1.819 0,0"
             style="fill:#f29b62;fill-opacity:1;fill-rule:nonzero;stroke:none"
             id="path420"
             inkscape:connector-curvature="0" /></g><g
           id="g422"
           transform="translate(285.7881,271.5444)"><path
             d="m 0,0 c -0.03,-0.01 -0.051,-0.01 -0.08,-0.01 -0.17,-0.01 -0.34,-0.02 -0.521,-0.02 l 0.011,0.69 0.4,19.51 c 0,0 0.299,0.62 0.85,1.43 0.47,0.69 1.119,1.52 1.93,2.23 1.74,1.54 4.2,2.49 7.059,0.17 C 10.17,23.58 10.63,23.04 11.02,22.41 14.97,16.15 12.779,0.71 0,0"
             style="fill:#ffb890;fill-opacity:1;fill-rule:nonzero;stroke:none"
             id="path424"
             inkscape:connector-curvature="0" /></g><g
           id="g426"
           transform="translate(290.8887,284.3057)"><path
             d="M 0,0 C -0.034,0.261 -0.085,0.522 -0.146,0.78 -0.542,2.428 -1.504,4.062 -2.444,5.463 -2.669,5.797 -2.235,6.215 -1.902,6.015 1.146,4.178 3.807,0.242 2.529,-3.446 1.552,-6.272 -3.085,-8.138 -4.58,-4.728 -5.757,-2.044 -2.931,1.818 0,0"
             style="fill:#f29b62;fill-opacity:1;fill-rule:nonzero;stroke:none"
             id="path428"
             inkscape:connector-curvature="0" /></g><g
           id="g430"
           transform="translate(288.5273,305.8145)"><path
             d="m 0,0 c 0,-3.65 -0.04,-7.13 -0.149,-10.44 -0.021,-0.74 -0.05,-1.47 -0.08,-2.19 -0.121,-3.14 -0.311,-6.12 -0.581,-8.95 -0.19,-1.98 -0.41,-3.89 -0.69,-5.72 -0.35,-2.43 -0.779,-4.73 -1.31,-6.9 0,-0.02 0,-0.05 -0.009,-0.08 -1.531,-6.29 -3.83,-11.44 -7.221,-15.44 -5.93,-7.01 -15.199,-10.52 -29.569,-10.52 -14.58,0 -23.921,3.61 -29.841,10.84 -2.82,3.44 -4.86,7.71 -6.33,12.79 -0.34,1.2 -0.659,2.44 -0.94,3.73 -0.489,2.22 -0.889,4.57 -1.21,7.05 -0.239,1.77 -0.429,3.62 -0.59,5.53 -0.26,3.07 -0.439,6.32 -0.549,9.75 -0.011,0.43 -0.031,0.87 -0.031,1.31 -0.089,2.95 -0.12,6.03 -0.12,9.24 C -79.22,36.72 0,36.72 0,0"
             style="fill:#ffc9ae;fill-opacity:1;fill-rule:nonzero;stroke:none"
             id="path432"
             inkscape:connector-curvature="0" /></g><g
           id="g434"
           transform="translate(279.6475,257.5542)"><path
             d="m 0,0 c -0.37,-0.5 -0.76,-0.99 -1.16,-1.46 -5.93,-7.01 -15.199,-10.52 -29.569,-10.52 -14.581,0 -23.921,3.61 -29.841,10.84 -2.82,3.44 -4.86,7.71 -6.33,12.79 -0.34,1.2 -0.66,2.44 -0.94,3.73 -0.49,2.22 -0.889,4.57 -1.21,7.05 -0.24,1.77 -0.429,3.62 -0.59,5.53 -0.26,3.07 -0.44,6.32 -0.549,9.75 -0.011,0.43 -0.031,0.87 -0.031,1.31 -0.09,2.95 -0.12,6.03 -0.12,9.24 0,7.56 3.361,13.57 8.7,18.01 -2.69,-3.71 -4.26,-8.15 -4.26,-13.31 0,-3.21 0.03,-6.29 0.12,-9.24 0,-0.44 0.02,-0.88 0.03,-1.31 0.11,-3.43 0.291,-6.68 0.55,-9.75 0.16,-1.91 0.35,-3.76 0.59,-5.53 0.32,-2.48 0.72,-4.83 1.21,-7.05 0.28,-1.29 0.6,-2.53 0.941,-3.73 1.469,-5.08 3.509,-9.35 6.329,-12.79 5.921,-7.23 15.26,-10.84 29.84,-10.84 11.95,0 20.381,2.43 26.29,7.28"
             style="fill:#ffb890;fill-opacity:1;fill-rule:nonzero;stroke:none"
             id="path436"
             inkscape:connector-curvature="0" /></g><g
           id="g438"
           transform="translate(229.6235,278.2896)"><path
             d="m 0,0 c -4.523,0 -9.103,3.561 -9.103,10.365 0,0.829 0.672,1.5 1.5,1.5 0.829,0 1.5,-0.671 1.5,-1.5 C -6.103,5.305 -2.939,3 0,3 c 2.939,0 6.103,2.305 6.103,7.365 0,0.829 0.671,1.5 1.5,1.5 0.829,0 1.5,-0.671 1.5,-1.5 C 9.103,3.561 4.524,0 0,0"
             style="fill:#b64401;fill-opacity:1;fill-rule:nonzero;stroke:none"
             id="path440"
             inkscape:connector-curvature="0" /></g><g
           id="g442"
           transform="translate(269.7607,278.2896)"><path
             d="m 0,0 c -4.522,0 -9.102,3.561 -9.102,10.365 0,0.829 0.671,1.5 1.5,1.5 0.828,0 1.5,-0.671 1.5,-1.5 C -6.102,5.305 -2.938,3 0,3 c 2.94,0 6.104,2.305 6.104,7.365 0,0.829 0.671,1.5 1.5,1.5 0.828,0 1.5,-0.671 1.5,-1.5 C 9.104,3.561 4.524,0 0,0"
             style="fill:#b64401;fill-opacity:1;fill-rule:nonzero;stroke:none"
             id="path444"
             inkscape:connector-curvature="0" /></g><g
           id="g446"
           transform="translate(233.6123,308.3115)"><path
             d="m 0,0 c -0.497,0 -0.984,0.247 -1.269,0.698 -1.001,1.583 -1.967,2.454 -2.719,2.454 -0.753,0 -1.719,-0.871 -2.72,-2.454 -0.442,-0.7 -1.367,-0.91 -2.069,-0.466 -0.7,0.443 -0.909,1.37 -0.466,2.07 1.639,2.591 3.357,3.85 5.254,3.85 1.898,0 3.616,-1.259 5.255,-3.85 C 1.709,1.602 1.5,0.675 0.8,0.232 0.551,0.075 0.274,0 0,0"
             style="fill:#b64401;fill-opacity:1;fill-rule:nonzero;stroke:none"
             id="path448"
             inkscape:connector-curvature="0" /></g><g
           id="g450"
           transform="translate(273.749,308.3115)"><path
             d="m 0,0 c -0.497,0 -0.983,0.247 -1.269,0.698 -1.001,1.583 -1.966,2.454 -2.719,2.454 -0.752,0 -1.718,-0.871 -2.719,-2.454 -0.443,-0.699 -1.369,-0.909 -2.069,-0.466 -0.701,0.443 -0.91,1.37 -0.466,2.07 1.639,2.591 3.357,3.85 5.254,3.85 1.898,0 3.616,-1.259 5.255,-3.85 C 1.71,1.602 1.502,0.675 0.802,0.232 0.552,0.075 0.274,0 0,0"
             style="fill:#b64401;fill-opacity:1;fill-rule:nonzero;stroke:none"
             id="path452"
             inkscape:connector-curvature="0" /></g><g
           id="g454"
           transform="translate(250.6274,259.0034)"><path
             d="m 0,0 h -0.47 c -1.304,0 -2.361,1.057 -2.361,2.361 v 4.365 c 0,1.303 1.057,2.36 2.361,2.36 H 0 c 1.304,0 2.361,-1.057 2.361,-2.36 V 2.361 C 2.361,1.057 1.304,0 0,0"
             style="fill:#b64401;fill-opacity:1;fill-rule:nonzero;stroke:none"
             id="path456"
             inkscape:connector-curvature="0" /></g><g
           id="g458"><g
             id="g460" /><g
             id="g476"><g
               clip-path="url(#clipPath464)"
               id="g474"
               style="opacity:0.67999297"><g
                 transform="translate(231.0376,265.6045)"
                 id="g468"><path
                   d="m 0,0 c 0,-5.25 -4.25,-9.51 -9.5,-9.51 -0.85,0 -1.67,0.11 -2.46,0.32 -2.82,3.44 -4.86,7.71 -6.33,12.79 1.41,3.46 4.81,5.9 8.79,5.9 C -4.25,9.5 0,5.24 0,0"
                   style="fill:#f29d86;fill-opacity:1;fill-rule:nonzero;stroke:none"
                   id="path466"
                   inkscape:connector-curvature="0" /></g><g
                 transform="translate(285.7881,271.5444)"
                 id="g472"><path
                   d="M 0,0 C -0.03,-0.01 -0.051,-0.01 -0.08,-0.01 -1.61,-6.3 -3.91,-11.45 -7.301,-15.45 H -7.42 c -5.25,0 -9.511,4.26 -9.511,9.51 0,5.24 4.261,9.5 9.511,9.5 2.68,0 5.109,-1.11 6.83,-2.9 C -0.4,0.47 -0.23,0.28 -0.07,0.07 -0.04,0.05 -0.021,0.03 0,0"
                   style="fill:#f29d86;fill-opacity:1;fill-rule:nonzero;stroke:none"
                   id="path470"
                   inkscape:connector-curvature="0" /></g></g></g></g></g></g></g></svg>